# xmcd CD database file
#
# Track frame offsets:
#	150
#	24575
#	40125
#	68229
#	89006
#	107900
#	132009
#	147196
#	168551
#	187224
#	208592
#	228383
#	249460
#	270537
#	290493
#	313135
#
# Disc length: 4193 seconds
#
# Revision: 2
# Processed by: cddbd v1.4b41PL1 Copyright (c) Steve Scherf et al.
# Submitted via: Feurio! 1.60 - http://www.feurio.com
#
DISCID=02105f10,f3105f10
DTITLE=Various Artist - 조관우 BEST
DYEAR=1900
DGENRE=
TTITLE0=조관우 - 모래성
TTITLE1=조관우 - 겨울이야기
TTITLE2=조관우 - 늪
TTITLE3=조관우 - 실락원
TTITLE4=조관우 - 꽃밭에서
TTITLE5=조관우 - 님은먼곳에
TTITLE6=조관우 - 당신은 모르실꺼야
TTITLE7=조관우 - 연
TTITLE8=조관우 - 하늘바다나무별의 이야기
TTITLE9=조관우 - 다시 내게로 돌아와
TTITLE10=조관우 -  영원
TTITLE11=조관우 - 소녀와 가로등
TTITLE12=조관우&이소은 - 결혼
TTITLE13=조관우 - 사랑했으므로
TTITLE14=조관우 - 섬
TTITLE15=조관우 - 이별의 서정
EXTD=
EXTT0=
EXTT1=
EXTT2=
EXTT3=
EXTT4=
EXTT5=
EXTT6=
EXTT7=
EXTT8=
EXTT9=
EXTT10=
EXTT11=
EXTT12=
EXTT13=
EXTT14=
EXTT15=
PLAYORDER=
